<svg width="141" height="40" viewBox="0 0 141 40" fill="none" xmlns="http://www.w3.org/2000/svg">
<path d="M32.9412 24.4305V39.0488H27.5344V25.0313C27.5344 23.2958 27.2174 22.0108 26.5832 21.1765C25.9825 20.3087 25.0146 19.8748 23.6796 19.8748C22.7785 19.8748 21.9775 20.0751 21.2766 20.4756C20.6091 20.8761 20.0751 21.4602 19.6746 22.2278C19.3075 22.9954 19.1239 23.9299 19.1239 25.0313V39.0488H13.7171V25.0313C13.7171 23.2958 13.4001 22.0108 12.766 21.1765C12.1652 20.3087 11.1973 19.8748 9.86233 19.8748C8.92783 19.8748 8.11014 20.0751 7.40926 20.4756C6.74176 20.8761 6.22445 21.4602 5.85732 22.2278C5.4902 22.9954 5.30663 23.9299 5.30663 25.0313V39.0488H0V16.02H5.30663V19.3742C5.97413 18.106 6.84189 17.1548 7.90989 16.5207C9.01126 15.8531 10.2962 15.5194 11.7647 15.5194C13.4668 15.5194 14.8686 15.8698 15.97 16.5707C17.1047 17.2716 17.9224 18.2895 18.423 19.6245C19.224 18.2895 20.2253 17.2716 21.4268 16.5707C22.6617 15.8698 24.0634 15.5194 25.632 15.5194C27.2674 15.5194 28.6191 15.8698 29.6871 16.5707C30.7885 17.2382 31.6062 18.2395 32.1402 19.5745C32.6742 20.9095 32.9412 22.5282 32.9412 24.4305Z" fill="white"/>
<path d="M39.6445 6.85857C39.6445 5.92407 39.9782 5.13976 40.6457 4.50563C41.3466 3.8715 42.1476 3.55444 43.0487 3.55444C44.0166 3.55444 44.8176 3.8715 45.4517 4.50563C46.1192 5.13976 46.453 5.92407 46.453 6.85857C46.453 7.7597 46.1192 8.54401 45.4517 9.21151C44.8176 9.84564 44.0166 10.1627 43.0487 10.1627C42.1476 10.1627 41.3466 9.84564 40.6457 9.21151C39.9782 8.54401 39.6445 7.7597 39.6445 6.85857ZM40.3954 16.02H45.702V39.0488H40.3954V16.02Z" fill="white"/>
<path d="M52.9423 0H58.249V39.0488H52.9423V0ZM66.7096 16.02H73.3178L63.4054 25.5319L74.3191 39.0488H67.7609L56.7471 25.5319L66.7096 16.02Z" fill="white"/>
<path d="M75.4439 27.5344C75.4439 25.1648 75.9779 23.0788 77.0459 21.2766C78.1473 19.4743 79.6325 18.0726 81.5015 17.0713C83.3705 16.0367 85.4898 15.5194 87.8594 15.5194C90.2291 15.5194 92.3317 16.0367 94.1673 17.0713C96.0363 18.0726 97.5215 19.4743 98.6229 21.2766C99.7243 23.0788 100.275 25.1648 100.275 27.5344C100.275 29.8707 99.7243 31.9566 98.6229 33.7922C97.5215 35.5945 96.0363 37.0129 94.1673 38.0476C92.3317 39.0488 90.2291 39.5494 87.8594 39.5494C85.4898 39.5494 83.3705 39.0488 81.5015 38.0476C79.6325 37.0129 78.1473 35.5945 77.0459 33.7922C75.9779 31.9566 75.4439 29.8707 75.4439 27.5344ZM81.0009 27.5344C81.0009 28.9695 81.3012 30.2378 81.902 31.3392C82.5027 32.4072 83.3204 33.2582 84.355 33.8924C85.3897 34.4931 86.5578 34.7935 87.8594 34.7935C89.1277 34.7935 90.2791 34.4931 91.3138 33.8924C92.3818 33.2582 93.2161 32.4072 93.8169 31.3392C94.4176 30.2378 94.718 28.9695 94.718 27.5344C94.718 26.0993 94.4176 24.831 93.8169 23.7297C93.2161 22.6283 92.3818 21.7772 91.3138 21.1765C90.2791 20.5757 89.1277 20.2753 87.8594 20.2753C86.5578 20.2753 85.3897 20.5757 84.355 21.1765C83.3204 21.7772 82.5027 22.6283 81.902 23.7297C81.3012 24.831 81.0009 26.0993 81.0009 27.5344Z" fill="white"/>
<path d="M120.224 25.0313C120.224 23.3292 119.873 22.0442 119.172 21.1765C118.472 20.3087 117.387 19.8748 115.918 19.8748C114.917 19.8748 114.033 20.0918 113.265 20.5257C112.497 20.9262 111.897 21.5269 111.463 22.3279C111.029 23.0955 110.812 23.9967 110.812 25.0313V39.0488H105.405V16.02H110.812V19.5745C111.546 18.2061 112.481 17.1882 113.615 16.5207C114.784 15.8531 116.169 15.5194 117.771 15.5194C120.374 15.5194 122.36 16.3204 123.728 17.9224C125.096 19.491 125.781 21.6604 125.781 24.4305V39.0488H120.224V25.0313Z" fill="white"/>
<path d="M133.436 36.4956C133.436 35.5277 133.77 34.7101 134.438 34.0426C135.138 33.3417 135.973 32.9912 136.941 32.9912C137.975 32.9912 138.826 33.3417 139.494 34.0426C140.161 34.7101 140.495 35.5277 140.495 36.4956C140.495 37.4301 140.161 38.2478 139.494 38.9487C138.826 39.6496 137.975 40 136.941 40C135.973 40 135.138 39.6496 134.438 38.9487C133.77 38.2478 133.436 37.4301 133.436 36.4956Z" fill="#91FF00"/>
</svg>
