<svg width="29" height="29" viewBox="0 0 29 29" fill="none" xmlns="http://www.w3.org/2000/svg">
<path fill-rule="evenodd" clip-rule="evenodd" d="M14.1498 14.1499C14.1498 11.9901 15.9007 10.2393 18.0605 10.2393C20.2202 10.2393 21.9711 11.9901 21.9711 14.1499C21.9711 16.3096 20.2202 18.0605 18.0605 18.0605C15.9007 18.0605 14.1498 16.3096 14.1498 14.1499Z" fill="#1ABCFE"/>
<path fill-rule="evenodd" clip-rule="evenodd" d="M6.32861 21.9712C6.32861 19.8114 8.07946 18.0605 10.2392 18.0605H14.1498V21.9712C14.1498 24.1309 12.399 25.8818 10.2392 25.8818C8.07946 25.8818 6.32861 24.1309 6.32861 21.9712Z" fill="#0ACF83"/>
<path fill-rule="evenodd" clip-rule="evenodd" d="M14.1498 2.41797V10.2392H18.0605C20.2202 10.2392 21.9711 8.48836 21.9711 6.32858C21.9711 4.16881 20.2202 2.41797 18.0605 2.41797H14.1498Z" fill="#FF7262"/>
<path fill-rule="evenodd" clip-rule="evenodd" d="M6.32861 6.32858C6.32861 8.48836 8.07946 10.2392 10.2392 10.2392H14.1498V2.41797H10.2392C8.07946 2.41797 6.32861 4.16881 6.32861 6.32858Z" fill="#F24E1E"/>
<path fill-rule="evenodd" clip-rule="evenodd" d="M6.32861 14.1499C6.32861 16.3096 8.07946 18.0605 10.2392 18.0605H14.1498V10.2393H10.2392C8.07946 10.2393 6.32861 11.9901 6.32861 14.1499Z" fill="#A259FF"/>
</svg>
