<svg width="29" height="29" viewBox="0 0 29 29" fill="none" xmlns="http://www.w3.org/2000/svg">
<rect x="0.977051" y="0.503418" width="27.8088" height="27.8088" rx="13.9044" fill="white"/>
<path fill-rule="evenodd" clip-rule="evenodd" d="M8.02403 4.66618L14.8814 3.97949L21.7388 4.66618L27.0477 11.4166L14.8814 24.836L2.71509 11.4166L8.02403 4.66618Z" fill="#FDB300"/>
<path d="M7.64301 11.4167L14.8814 24.8362L2.71509 11.4167H7.64301ZM22.1199 11.4167L14.8815 24.8362L27.0478 11.4167" fill="#EA6C00"/>
<path fill-rule="evenodd" clip-rule="evenodd" d="M7.64301 11.4167H22.1197L14.8814 24.8362" fill="#FDAD00"/>
<path d="M14.8814 3.97949L8.02397 4.66606L7.64301 11.4165L14.8814 3.97949ZM14.8815 3.97949L21.7389 4.66606L22.1198 11.4165" fill="#FDD231"/>
<path d="M27.0478 11.4165L21.7389 4.66602L22.1199 11.4165H27.0478ZM2.71509 11.4165L8.02397 4.66602L7.64301 11.4165" fill="#FDAD00"/>
<path fill-rule="evenodd" clip-rule="evenodd" d="M14.8814 3.97949L7.64301 11.4165H22.1197" fill="#FEEEB7"/>
</svg>
